# xmcd
#
# Track frame offsets:
#	150
#	19846
#	31941
#	48937
#	72157
#	83809
#	100249
#	117420
#	136645
#	156631
#	167574
#	187280
#	207123
#	227843
#	245448
#	273296
#	291914
#	312527
#	331288
#	345290
#
# Disc length: 4779 seconds
#
# Revision: 0
# Processed by: cddbd v1.5.2PL0 Copyright (c) Steve Scherf et al.
# Submitted via: audiograbber 1.83.01
#
DISCID=1f12a914
DTITLE=—борник - Las 101 Grandes Canciones De Amor CD1
DYEAR=1900
DGENRE=
TTITLE0=Whitney Houston - I Will Always Love You
TTITLE1=Elvis Presley - Love Me Tender
TTITLE2=Elton John - Candle In The Wind
TTITLE3=Rod Stewart - Maggie May
TTITLE4=Van Morrison - Crazy Love
TTITLE5=Michael Jackson - Rock With You
TTITLE6=Gloirian Estefan - Anything For You
TTITLE7=Prince - Diamonds And Pearls
TTITLE8=Barry White - You're The First, The Last, My Everything
TTITLE9=Linda Ronstadt - It's So Crazy
TTITLE10=Bonnie Tyler - Total Eclipse Of The Heart
TTITLE11=Diana Ross and Lionel Richie - Endless Love
TTITLE12=Chris Rea - Fool (If You Think Ot's Over)
TTITLE13=Natalie Imbruglia - Torn
TTITLE14=Sade - Is It A Crime
TTITLE15=The Corrs - What Can I Do
TTITLE16=Bette Midler - From A Distance
TTITLE17=Michael Bolton - How Am I Supposed To Live Without You
TTITLE18=Simon and Garfunkel - Scarbourough Fair
TTITLE19=The Manhattan Transfer - Chanson D'Amour
EXTD=
EXTT0=
EXTT1=
EXTT2=
EXTT3=
EXTT4=
EXTT5=
EXTT6=
EXTT7=
EXTT8=
EXTT9=
EXTT10=
EXTT11=
EXTT12=
EXTT13=
EXTT14=
EXTT15=
EXTT16=
EXTT17=
EXTT18=
EXTT19=
PLAYORDER=
